<?xml version="1.0" standalone="no"?>
<!DOCTYPE svg PUBLIC "-//W3C//DTD SVG 20010904//EN"
 "http://www.w3.org/TR/2001/REC-SVG-20010904/DTD/svg10.dtd">
<svg version="1.0" xmlns="http://www.w3.org/2000/svg"
 viewBox="0 0 2600.000000 2600.000000"
 preserveAspectRatio="xMidYMid meet">
<metadata>
Created by potrace 1.15, written by Peter Selinger 2001-2017
</metadata>
<g transform="translate(0.000000,2600.000000) scale(0.100000,-0.100000)"
fill="#FFFFFF" stroke="none">
<path d="M15215 14256 c-99 -31 -139 -70 -155 -153 -10 -51 -66 -213 -79 -226
-4 -4 -103 -12 -221 -17 -117 -6 -215 -12 -217 -13 -2 -2 -13 -46 -24 -98 -28
-128 -29 -260 -1 -322 22 -49 69 -87 110 -87 22 0 22 -1 22 -164 l0 -163 -114
-5 c-103 -4 -121 -7 -172 -34 -77 -39 -108 -93 -101 -176 l5 -57 -52 -6 c-28
-3 -204 -16 -391 -30 -328 -23 -343 -25 -429 -56 -160 -57 -287 -160 -342
-276 l-25 -54 -377 6 c-207 3 -423 8 -479 11 l-103 6 0 115 0 116 -57 -7 c-83
-10 -217 -44 -301 -77 -71 -29 -174 -87 -186 -107 -3 -6 -92 17 -213 54 l-208
64 -255 10 c-140 6 -255 12 -257 14 -2 2 -11 53 -20 114 -15 97 -19 112 -36
112 -27 0 -560 -101 -573 -109 -6 -3 -72 -55 -146 -116 l-136 -109 -838 2
c-934 4 -1599 -10 -2209 -44 l-120 -7 114 -29 c306 -76 547 -214 776 -443 226
-225 359 -457 435 -759 108 -429 34 -889 -202 -1264 -22 -34 -38 -65 -36 -67
7 -7 160 32 247 64 247 90 436 251 581 491 l50 83 0 -201 0 -202 -22 0 c-22 0
-41 -20 -155 -165 l-32 -40 28 -115 c30 -129 27 -122 90 -205 24 -33 45 -61
46 -62 1 -1 692 6 1536 17 843 10 1561 17 1594 14 731 -55 1021 -97 1172 -171
l52 -26 3277 55 3277 55 71 -23 c244 -77 595 -160 839 -199 159 -24 444 -51
453 -42 3 2 -21 19 -53 37 -427 240 -742 661 -847 1132 -86 384 -43 776 123
1123 174 364 443 637 806 818 275 137 583 197 903 176 744 -51 1374 -572 1566
-1298 14 -51 27 -95 28 -96 6 -5 513 67 519 73 3 4 -2 545 -12 1202 -10 657
-18 1241 -18 1298 l-1 102 -51 0 c-167 0 -539 -87 -778 -182 -41 -16 -77 -25
-81 -21 -4 4 -13 44 -19 88 -7 44 -15 88 -17 98 -5 15 -22 17 -185 17 -98 0
-179 2 -179 5 0 3 36 77 80 164 l79 159 -92 6 c-128 8 -1470 37 -1475 32 -2
-3 0 -43 5 -90 9 -83 8 -86 -12 -86 -11 0 -176 7 -368 16 -191 10 -350 15
-352 12 -12 -11 46 -764 64 -848 28 -122 59 -200 98 -239 l33 -33 -2 -255 -3
-254 -116 85 c-715 519 -1566 992 -2237 1242 -261 98 -534 173 -768 213 -153
26 -292 36 -964 67 -305 13 -563 26 -572 27 -13 1 5 31 72 119 l90 116 -48 16
c-254 82 -585 121 -707 82z m-220 -971 c22 -13 52 -36 66 -52 23 -24 239 -366
239 -377 0 -3 -35 7 -77 21 -43 15 -130 40 -193 57 l-115 31 -3 178 -2 178 22
-6 c13 -4 41 -17 63 -30z m-5540 -2418 l490 -83 3 -39 c2 -22 -2 -92 -8 -155
-36 -349 -168 -548 -369 -553 -31 -1 -260 -1 -508 1 l-453 2 0 404 0 405 26
20 c53 41 185 76 304 79 14 0 246 -36 515 -81z"/>
<path d="M21330 12310 c-721 -89 -1278 -600 -1432 -1313 -18 -85 -22 -136 -22
-302 -1 -223 16 -339 75 -518 130 -391 425 -739 787 -930 476 -250 1020 -259
1498 -27 390 189 697 538 832 945 65 195 77 278 77 520 0 189 -4 234 -23 320
-41 188 -109 364 -197 511 -252 416 -661 696 -1140 779 -110 20 -353 27 -455
15z m415 -761 c245 -42 488 -232 606 -475 62 -129 82 -216 82 -374 0 -164 -19
-247 -92 -395 -111 -225 -313 -391 -556 -456 -108 -29 -288 -32 -400 -6 -89
21 -218 77 -292 128 -169 115 -299 301 -354 504 -31 111 -31 325 -1 436 78
289 287 514 565 610 135 46 278 55 442 28z"/>
<path d="M5515 12284 c-266 -33 -554 -78 -726 -114 -423 -87 -1400 -383 -1899
-575 -471 -182 -775 -348 -875 -480 -34 -44 -43 -110 -21 -152 56 -110 339
-213 584 -213 62 0 72 -2 72 -17 0 -20 -29 -175 -33 -180 -4 -3 -1109 -53
-1183 -53 l-54 0 0 -391 0 -390 -25 -37 c-33 -48 -32 -77 2 -99 26 -17 73 -18
753 -15 399 1 973 5 1277 8 l552 6 55 55 c31 29 63 67 71 83 14 26 13 30 -2
38 -16 9 -14 27 17 243 18 129 37 238 41 243 4 4 124 -8 267 -28 142 -20 264
-36 270 -36 8 0 7 12 -3 39 -24 69 -63 243 -76 339 -16 127 -6 377 21 507 114
544 485 987 1005 1201 91 38 83 40 -90 18z"/>
<path d="M6013 12269 c-682 -105 -1203 -612 -1317 -1282 -20 -115 -23 -345 -6
-457 51 -337 199 -630 440 -870 418 -419 1021 -563 1582 -380 539 177 924 611
1045 1180 26 122 26 450 -1 570 -46 215 -135 424 -251 591 -78 112 -277 309
-390 385 -169 115 -371 201 -573 245 -111 24 -423 35 -529 18z m317 -750 c165
-26 304 -100 430 -228 162 -164 230 -330 230 -561 0 -176 -45 -323 -139 -457
-223 -317 -628 -429 -970 -267 -225 106 -391 306 -447 541 -24 98 -22 285 4
384 105 397 493 653 892 588z"/>
</g>
</svg>
